<?xml version="1.0" standalone="no"?>
<!DOCTYPE svg PUBLIC "-//W3C//DTD SVG 20010904//EN"
 "http://www.w3.org/TR/2001/REC-SVG-20010904/DTD/svg10.dtd">
<svg version="1.0" xmlns="http://www.w3.org/2000/svg"
 width="273.000000pt" height="110.000000pt" viewBox="0 0 273.000000 110.000000"
 preserveAspectRatio="xMidYMid meet">

<g transform="translate(0.000000,110.000000) scale(0.100000,-0.100000)"
fill="#000000" stroke="none">
<path d="M443 928 c-6 -7 -13 -21 -16 -30 -3 -9 -16 -18 -28 -20 -44 -6 -45
-28 -11 -180 18 -79 35 -171 38 -204 6 -56 5 -63 -15 -73 -18 -10 -28 -6 -82
39 -49 41 -67 50 -98 50 -23 0 -48 -8 -62 -19 l-23 -18 68 -64 c38 -35 74 -68
81 -74 7 -5 34 -44 60 -85 52 -83 94 -132 106 -124 4 2 -14 34 -42 70 -27 36
-56 80 -65 97 -9 18 -50 64 -92 102 -79 74 -86 95 -32 95 20 0 48 -16 94 -55
35 -30 67 -55 70 -55 3 0 17 11 32 25 25 23 26 29 22 87 -3 35 -20 125 -38
200 -18 76 -29 145 -26 154 3 9 15 14 28 12 20 -3 27 -21 65 -156 23 -85 44
-156 47 -160 20 -19 13 27 -28 183 -26 96 -44 180 -41 185 11 18 45 10 55 -12
5 -13 28 -92 51 -176 23 -84 50 -163 59 -175 18 -21 19 -21 38 -4 13 12 32 62
52 135 40 145 55 182 73 182 35 0 35 -25 -4 -165 -41 -147 -46 -176 -29 -159
6 6 22 52 37 103 27 95 43 115 70 89 13 -14 11 -28 -20 -129 -19 -63 -42 -167
-51 -231 -9 -65 -25 -145 -35 -178 -11 -33 -15 -63 -10 -66 18 -11 55 125 73
271 7 55 28 148 46 207 28 90 32 111 22 132 -8 18 -19 26 -37 26 -29 0 -28 -2
-14 39 21 60 -43 109 -83 64 -8 -10 -31 -78 -51 -152 -35 -130 -49 -162 -63
-148 -4 4 -29 84 -55 178 -27 94 -53 177 -60 185 -14 17 -63 18 -76 2z"/>
<path d="M1125 660 c-5 -9 -1 -10 13 -6 22 7 96 -24 75 -31 -7 -2 -21 0 -32 6
-25 14 -66 0 -75 -25 -7 -19 1 -27 81 -84 30 -21 41 -35 37 -47 -5 -17 -5 -17
6 -1 16 25 -2 54 -49 77 -44 23 -65 46 -56 61 8 13 52 13 60 0 10 -16 32 -12
39 7 4 9 1 22 -6 29 -19 19 -84 28 -93 14z"/>
<path d="M1626 660 c-61 -19 -104 -89 -91 -150 8 -35 52 -93 65 -85 5 3 -2 16
-15 29 -31 31 -43 92 -24 125 22 39 76 71 123 72 32 0 37 2 21 9 -25 11 -42
11 -79 0z"/>
<path d="M1947 656 c-42 -16 -79 -44 -72 -56 3 -5 0 -10 -7 -12 -20 -7 -14
-95 8 -126 30 -41 86 -65 133 -57 55 9 79 28 63 48 -10 12 -26 14 -66 10 -49
-5 -54 -3 -75 23 -36 46 -17 104 44 130 25 11 27 13 8 14 -12 0 -29 -7 -37
-16 -9 -8 -16 -12 -16 -7 0 4 -9 -3 -20 -17 -30 -38 -26 -86 11 -122 28 -28
34 -30 80 -25 27 3 49 2 49 -2 0 -12 -26 -21 -62 -21 -83 0 -147 104 -103 166
8 12 12 24 10 28 -3 3 -2 4 2 1 3 -3 14 2 23 10 21 19 83 30 107 20 10 -5 21
-7 26 -7 16 4 6 -27 -10 -31 -17 -4 -17 -5 0 -6 36 -2 31 48 -5 55 -7 2 -22 5
-33 8 -11 3 -37 -1 -58 -8z"/>
<path d="M1310 529 c0 -130 0 -130 23 -127 19 3 22 10 25 51 l3 47 39 0 c47 0
80 35 80 85 0 51 -34 75 -108 75 l-62 0 0 -131z m115 111 c33 -13 48 -52 33
-85 -11 -25 -26 -32 -83 -37 -28 -3 -30 -6 -36 -53 -7 -56 -8 -52 -15 58 -8
109 -2 127 41 127 18 0 45 -4 60 -10z"/>
<path d="M1342 585 c0 -39 3 -46 23 -51 56 -14 99 29 70 72 -12 18 -24 24 -54
24 l-38 0 -1 -45z m83 -5 c0 -21 -5 -26 -32 -28 -31 -3 -33 -1 -33 28 0 29 2
31 33 28 27 -2 32 -7 32 -28z"/>
<path d="M2142 533 l3 -128 25 0 c23 0 25 4 28 53 2 29 7 52 11 50 5 -2 27
-27 50 -55 32 -41 47 -52 66 -51 14 1 25 6 25 11 0 8 -49 75 -77 105 -18 19
-18 19 33 84 l45 58 -33 0 c-28 0 -38 -7 -68 -50 -19 -27 -38 -49 -42 -50 -5
0 -8 23 -8 50 0 49 -1 50 -30 50 l-31 0 3 -127z m38 -4 c0 -60 -4 -109 -9
-109 -15 0 -16 13 -13 125 4 140 22 127 22 -16z m96 62 c-20 -27 -36 -52 -36
-56 0 -4 19 -29 41 -57 23 -27 39 -52 35 -55 -3 -4 -7 -4 -9 -2 -1 2 -21 25
-45 51 -23 26 -42 54 -42 61 0 18 68 107 81 107 6 0 -5 -22 -25 -49z"/>
<path d="M1081 636 c-7 -8 -11 -29 -9 -48 2 -24 12 -38 38 -56 51 -33 70 -50
70 -62 0 -17 -31 -24 -61 -13 -48 18 -70 -24 -24 -45 33 -15 85 -15 85 -1 0 7
-9 9 -21 6 -27 -7 -84 12 -71 25 5 5 19 4 35 -3 21 -9 33 -10 53 -1 39 18 28
51 -30 89 -63 41 -71 55 -52 93 15 31 7 41 -13 16z"/>
<path d="M1730 648 c0 -4 11 -24 25 -44 41 -60 32 -114 -29 -166 -22 -20 -26
-28 -14 -28 26 0 77 57 84 95 9 48 -1 79 -36 118 -16 17 -30 29 -30 25z"/>
<path d="M1625 616 c-32 -14 -55 -52 -55 -91 0 -39 39 -75 88 -82 38 -5 47 -2
73 22 37 37 40 92 7 129 -25 27 -68 44 -68 27 0 -6 6 -11 13 -11 22 0 57 -44
57 -72 0 -40 -10 -57 -41 -73 -49 -26 -108 10 -109 66 0 30 34 79 56 79 8 0
14 5 14 10 0 12 2 12 -35 -4z"/>
<path d="M1203 435 c-17 -19 -16 -26 1 -19 15 6 30 34 18 34 -4 -1 -13 -7 -19
-15z"/>
<path d="M1670 410 c0 -5 5 -10 10 -10 6 0 10 5 10 10 0 6 -4 10 -10 10 -5 0
-10 -4 -10 -10z"/>
</g>
</svg>
